<svg xmlns="http://www.w3.org/2000/svg" version="1.1" id="Layer_1" x="0px" y="0px" viewBox="-310 408.3 200 200" xml:space="preserve"><path d="M-210 603.3c-53.2 0-95-41.7-95-95 0-52.4 42.6-95 95-95s95 42.6 95 95C-115 561.6-156.8 603.3-210 603.3zM-210 426c-45.4 0-82.3 36.9-82.3 82.3 0 46.1 36.1 82.3 82.3 82.3s82.3-36.1 82.3-82.3C-127.7 462.9-164.6 426-210 426z"/><path d="M-229.6 479.2h-0.2l-7.6 43.4h-8.4l13.5-68.6 22.5 51.9 22.5-51.9 13.5 68.6h-8.4l-7.6-43.4h-0.2l-19.6 44.9L-229.6 479.2z"/><path d="M-210 603.3c-53.2 0-95-41.7-95-95 0-52.4 42.6-95 95-95s95 42.6 95 95C-115 561.6-156.8 603.3-210 603.3zM-210 426c-45.4 0-82.3 36.9-82.3 82.3 0 46.1 36.1 82.3 82.3 82.3s82.3-36.1 82.3-82.3C-127.7 462.9-164.6 426-210 426z"/><path d="M-210.3 552.8c0 0 1 1.6 2.1 1.8 1.1 0 2.4 0.6 3 1.1 0.6 0.5 2.5 1.3 4.3 2.7 1.7 1.3 7.9 6.2 13.9 6.8 5.9 0.6 6.6 0 6.6 0s1.4-6 2.1-10.7c0.6-4.6 0.5-6.2 0-10.2s-1.6-10.5-1.6-10.5 -12.5 2.9-17.3 4.9c-4.8 2.1-8.2 5.9-9.3 5.9s-3.8-0.2-3.8-0.2h-0.3c0 0-2.7 0.3-3.8 0.2 -1.1-0.2-4.6-4-9.3-6 -4.8-2.1-17.3-4.9-17.3-4.9s-1 6.5-1.6 10.5c-0.5 4-0.6 5.6 0 10.2 0.6 4.6 2.1 10.7 2.1 10.7s0.6 0.6 6.6 0c5.9-0.6 12.2-5.4 13.9-6.7 1.6-1.3 3.6-1.9 4.3-2.4 0.6-0.5 1.9-1.8 3-1.8 1.1 0 2.1-1.8 2.1-1.8h0.3V552.8z"/></svg>
